<svg width="20" height="20" viewBox="0 0 20 20" fill="none" xmlns="http://www.w3.org/2000/svg">
<path d="M6.4 12.65C6.55 12.25 6.67083 11.8292 6.7625 11.3875C6.85417 10.9458 6.9 10.4833 6.9 10C6.9 9.51667 6.85417 9.05417 6.7625 8.6125C6.67083 8.17083 6.55 7.75 6.4 7.35L4.55 8.1C4.65 8.4 4.73333 8.70833 4.8 9.025C4.86667 9.34167 4.9 9.66667 4.9 10C4.9 10.3333 4.86667 10.6583 4.8 10.975C4.73333 11.2917 4.65 11.6 4.55 11.9L6.4 12.65ZM9.6 14C9.88333 13.3667 10.0875 12.7167 10.2125 12.05C10.3375 11.3833 10.4 10.7 10.4 10C10.4 9.3 10.3375 8.61667 10.2125 7.95C10.0875 7.28333 9.88333 6.63333 9.6 6L7.75 6.75C7.98333 7.25 8.15 7.77083 8.25 8.3125C8.35 8.85417 8.4 9.41667 8.4 10C8.4 10.5833 8.35 11.1458 8.25 11.6875C8.15 12.2292 7.98333 12.75 7.75 13.25L9.6 14ZM12.85 15.35C13.2 14.5167 13.4625 13.6542 13.6375 12.7625C13.8125 11.8708 13.9 10.95 13.9 10C13.9 9.05 13.8125 8.12917 13.6375 7.2375C13.4625 6.34583 13.2 5.48333 12.85 4.65L11 5.45C11.3 6.15 11.525 6.88333 11.675 7.65C11.825 8.41667 11.9 9.2 11.9 10C11.9 10.8 11.825 11.5833 11.675 12.35C11.525 13.1167 11.3 13.85 11 14.55L12.85 15.35ZM10 20C8.61667 20 7.31667 19.7375 6.1 19.2125C4.88333 18.6875 3.825 17.975 2.925 17.075C2.025 16.175 1.3125 15.1167 0.7875 13.9C0.2625 12.6833 0 11.3833 0 10C0 8.61667 0.2625 7.31667 0.7875 6.1C1.3125 4.88333 2.025 3.825 2.925 2.925C3.825 2.025 4.88333 1.3125 6.1 0.7875C7.31667 0.2625 8.61667 0 10 0C11.3833 0 12.6833 0.2625 13.9 0.7875C15.1167 1.3125 16.175 2.025 17.075 2.925C17.975 3.825 18.6875 4.88333 19.2125 6.1C19.7375 7.31667 20 8.61667 20 10C20 11.3833 19.7375 12.6833 19.2125 13.9C18.6875 15.1167 17.975 16.175 17.075 17.075C16.175 17.975 15.1167 18.6875 13.9 19.2125C12.6833 19.7375 11.3833 20 10 20ZM10 18C12.2333 18 14.125 17.225 15.675 15.675C17.225 14.125 18 12.2333 18 10C18 7.76667 17.225 5.875 15.675 4.325C14.125 2.775 12.2333 2 10 2C7.76667 2 5.875 2.775 4.325 4.325C2.775 5.875 2 7.76667 2 10C2 12.2333 2.775 14.125 4.325 15.675C5.875 17.225 7.76667 18 10 18Z" fill="#94A3B8"/>
</svg>
